<svg width="22" height="22" viewBox="0 0 22 22" fill="none" xmlns="http://www.w3.org/2000/svg">
<path d="M10.9891 0.166626C5.00913 0.166626 0.166626 5.01996 0.166626 11C0.166626 16.98 5.00913 21.8333 10.9891 21.8333C16.98 21.8333 21.8333 16.98 21.8333 11C21.8333 5.01996 16.98 0.166626 10.9891 0.166626ZM11 19.6666C6.21163 19.6666 2.33329 15.7883 2.33329 11C2.33329 6.21163 6.21163 2.33329 11 2.33329C15.7883 2.33329 19.6666 6.21163 19.6666 11C19.6666 15.7883 15.7883 19.6666 11 19.6666ZM14.7916 9.91663C15.6908 9.91663 16.4166 9.19079 16.4166 8.29163C16.4166 7.39246 15.6908 6.66663 14.7916 6.66663C13.8925 6.66663 13.1666 7.39246 13.1666 8.29163C13.1666 9.19079 13.8925 9.91663 14.7916 9.91663ZM7.20829 9.91663C8.10746 9.91663 8.83329 9.19079 8.83329 8.29163C8.83329 7.39246 8.10746 6.66663 7.20829 6.66663C6.30913 6.66663 5.58329 7.39246 5.58329 8.29163C5.58329 9.19079 6.30913 9.91663 7.20829 9.91663ZM11 16.9583C13.5241 16.9583 15.6691 15.3766 16.5358 13.1666H5.46413C6.33079 15.3766 8.47579 16.9583 11 16.9583Z" fill="#F9FAFB"/>
</svg>
